<?xml version="1.0" encoding="UTF-8"?>
<svg version="1.1" xmlns="http://www.w3.org/2000/svg" viewBox="160 100 200 280" width="200" height="280">
<path d="M0 0 C1.17094005 2.7899439 2.33690927 5.58178597 3.5 8.375 C3.83386719 9.1690625 4.16773438 9.963125 4.51171875 10.78125 C4.82753906 11.54179687 5.14335937 12.30234375 5.46875 13.0859375 C5.76201172 13.7876709 6.05527344 14.4894043 6.35742188 15.21240234 C7 17 7 17 7 19 C19.87 18.67 32.74 18.34 46 18 C49.465 9.09 49.465 9.09 53 0 C60.64464566 1.91116141 63.70950916 5.51213783 67.80078125 11.9765625 C70.20714106 16.03680478 70.19420659 19.40665733 70.23828125 24.04296875 C70.246353 24.8447908 70.25442474 25.64661285 70.26274109 26.47273254 C70.27658453 28.17328733 70.28730553 29.87386993 70.29516602 31.57446289 C70.312319 34.16021466 70.35619346 36.74466759 70.40039062 39.33007812 C70.41052315 40.98436562 70.4190375 42.63866397 70.42578125 44.29296875 C70.44328934 45.05989548 70.46079742 45.8268222 70.47883606 46.61698914 C70.45662231 52.18858782 69.14991777 55.3915686 66 60 C63.0059474 62.56909029 60.00282071 64 56 64 C56 64.66 56 65.32 56 66 C54.97261719 66.50789063 53.94523437 67.01578125 52.88671875 67.5390625 C51.48697283 68.23436224 50.08723372 68.9296757 48.6875 69.625 C47.95853516 69.98456787 47.22957031 70.34413574 46.47851562 70.71459961 C41.36662282 73.25534545 36.4511978 76.0103435 31.625 79.06640625 C26.87568015 80.75552447 22.9622241 79.86334043 18.49023438 77.89575195 C15.69958202 76.45717374 12.9728232 74.93807612 10.25 73.375 C9.28078613 72.82956543 8.31157227 72.28413086 7.31298828 71.72216797 C5.39918384 70.64262708 3.48842427 69.55766683 1.58105469 68.46679688 C-0.58590781 67.23532594 -2.76417907 66.03641798 -4.9609375 64.859375 C-11.74756854 61.13929576 -15.50134043 58.4959787 -18 51 C-18.25248588 46.37411043 -18.27088946 41.74588228 -18.29516602 37.11401367 C-18.3066553 35.58852846 -18.32705882 34.06308248 -18.35668945 32.5378418 C-18.58085348 20.99276815 -17.54641191 13.35909954 -9.515625 4.4765625 C-6.50876898 1.54720277 -4.21639592 0 0 0 Z " fill="#EEEFF1" transform="translate(219,125)"/>
<path d="M0 0 C4.14298667 0.59834725 7.18194377 2.00664285 10.8125 4.0625 C11.78832031 4.61035156 12.76414062 5.15820312 13.76953125 5.72265625 C14.87361328 6.35494141 14.87361328 6.35494141 16 7 C16 7.66 16 8.32 16 9 C16.5775 9.2475 17.155 9.495 17.75 9.75 C20.32939979 11.18299988 22.06121592 12.78424676 24 15 C24 15.66 24 16.32 24 17 C24.66 17 25.32 17 26 17 C36.13805328 33.63428159 42.35187173 50.726863 37.75 70.4765625 C32.8379872 87.00343889 23.80537355 100.39836823 9.00390625 109.39453125 C-1.08820933 114.78836675 -10.58508824 117.17656618 -22 117.1875 C-22.67289062 117.19974609 -23.34578125 117.21199219 -24.0390625 117.22460938 C-28.96191356 117.23886474 -32.03357054 116.41897984 -37 115 C-37 94.54 -37 74.08 -37 53 C-32 55 -32 55 -28.9375 57.0625 C-21.98403167 61.64883018 -13.18077666 60.5781323 -5.3125 59 C-3.8725269 58.67751769 -2.43392936 58.34837329 -1 58 C-1 57.34 -1 56.68 -1 56 C-0.319375 55.62875 0.36125 55.2575 1.0625 54.875 C6.64332149 51.31277352 11.53363754 45.93094089 13.5625 39.52734375 C15.16420954 30.27461094 15.47005464 19.99836478 10 12 C6.99850736 8.07759484 4.12322268 4.74881512 0 2 C0 1.34 0 0.68 0 0 Z " fill="#F4F5F6" transform="translate(290,257)"/>
<path d="M0 0 C1.65 0 3.3 0 5 0 C5 0.66 5 1.32 5 2 C5.84498047 2.18949219 5.84498047 2.18949219 6.70703125 2.3828125 C9.14038686 3.03778726 11.36991585 3.88667486 13.6875 4.875 C14.47511719 5.20242187 15.26273438 5.52984375 16.07421875 5.8671875 C18 7 18 7 19 10 C19.09365355 12.03306922 19.12629418 14.06912981 19.12698364 16.10435486 C19.12980347 17.38164963 19.13262329 18.6589444 19.13552856 19.97494507 C19.13358418 21.39337172 19.13153601 22.81179824 19.12939453 24.23022461 C19.13074933 25.72169538 19.13252971 27.21316582 19.13470459 28.70463562 C19.13926991 32.7583246 19.13749294 36.81198817 19.1343255 40.8656776 C19.1317968 45.10524105 19.13414091 49.34480231 19.13571167 53.58436584 C19.13753207 60.70558056 19.13513066 67.82678491 19.13037109 74.94799805 C19.12493081 83.18282526 19.12668995 91.41762771 19.1321975 99.65245432 C19.13673481 106.71918765 19.13737608 113.78591352 19.13475883 120.85264784 C19.1331992 125.07476778 19.13299369 129.29687609 19.13629532 133.51899529 C19.1391829 137.48915199 19.13718195 141.45927676 19.13140106 145.42943001 C19.13007815 146.88711621 19.13045965 148.3448051 19.13266373 149.80249023 C19.13539361 151.79121302 19.13136438 153.77994167 19.12698364 155.7686615 C19.12660662 156.88197814 19.12622959 157.99529478 19.12584114 159.14234829 C19.01726364 161.60797037 18.71765623 163.65108574 18 166 C13.61013844 165.41468513 10.52638639 163.76955241 6.75 161.5 C5.69296875 160.8709375 4.6359375 160.241875 3.546875 159.59375 C1 158 1 158 0 157 C-0.16174427 155.06931854 -0.25470631 153.13283966 -0.32066345 151.19651794 C-0.36328843 149.95910638 -0.40591341 148.72169481 -0.44983006 147.44678593 C-0.49052215 146.08099715 -0.53058372 144.71518946 -0.57006836 143.34936523 C-0.59133722 142.65576806 -0.61260608 141.96217088 -0.63451946 141.24755561 C-1.09628857 125.96533809 -1.03890163 110.69764375 -0.87890625 95.41015625 C-0.85379321 92.62952198 -0.83060483 89.84887246 -0.80735779 87.06822205 C-0.75217583 80.59516232 -0.69066892 74.12218034 -0.62663645 67.64920276 C-0.55382472 60.2556824 -0.48844946 52.8621014 -0.42356598 45.46850789 C-0.29040056 30.3122598 -0.14832813 15.15610789 0 0 Z " fill="#F8F9FA" transform="translate(227,203)"/>
<path d="M0 0 C3.16125744 0.73305721 5.6122145 1.75915214 8.4375 3.375 C9.21996094 3.82230469 10.00242188 4.26960937 10.80859375 4.73046875 C11.53175781 5.14941406 12.25492188 5.56835938 13 6 C13.99 6.556875 14.98 7.11375 16 7.6875 C18 9 18 9 19 11 C19.09398504 12.98920208 19.12190578 14.98163253 19.12025452 16.97305298 C19.12162918 18.24633957 19.12300385 19.51962616 19.12442017 20.83149719 C19.12088078 22.250458 19.11724597 23.66941857 19.11352539 25.08837891 C19.11324345 26.5763397 19.1134014 28.06430064 19.1139679 29.55226135 C19.11425558 33.59954662 19.10836345 37.64680243 19.10139394 41.69408083 C19.09515567 45.92083876 19.09455623 50.14759731 19.09336853 54.37435913 C19.09025662 62.38184927 19.0820451 70.3893258 19.07201904 78.39680994 C19.06085358 87.51155407 19.05534636 96.62629883 19.05032361 105.7410481 C19.03986238 124.49403979 19.02226563 143.2470188 19 162 C17.68 162.33 16.36 162.66 15 163 C3.07374314 147.69463704 -0.17330202 133.52670143 -0.11352539 114.32006836 C-0.11367142 113.08005066 -0.11381744 111.84003296 -0.1139679 110.56243896 C-0.11339383 107.18908808 -0.10840573 103.81579967 -0.10139394 100.44245982 C-0.09510932 96.90708144 -0.09455258 93.37170208 -0.09336853 89.83631897 C-0.0902702 83.15361775 -0.08207715 76.47093304 -0.07201904 69.78823906 C-0.0608112 62.17511825 -0.05533572 54.56199661 -0.05032361 46.94886959 C-0.03989317 31.29923685 -0.02232295 15.64962056 0 0 Z " fill="#E7E9EE" transform="translate(202,188)"/>
<path d="M0 0 C2.475 0.495 2.475 0.495 5 1 C5 1.66 5 2.32 5 3 C5.99 3.3403125 5.99 3.3403125 7 3.6875 C17.28722183 8.18815955 17.28722183 8.18815955 18.72621155 11.84598732 C18.98650845 14.11770933 18.99082672 16.26865768 18.90820312 18.55395508 C18.90937134 19.40324585 18.91053955 20.25253662 18.91174316 21.12756348 C18.90618222 23.92656731 18.84403255 26.72127511 18.78125 29.51953125 C18.76632419 31.46292289 18.75493877 33.40634469 18.74694824 35.34977722 C18.71644073 40.45844012 18.63788998 45.56527564 18.54931641 50.67321777 C18.46739482 55.88801349 18.4309233 61.1031053 18.390625 66.31835938 C18.30489416 76.54637467 18.16840403 86.77303523 18 97 C17.34 97 16.68 97 16 97 C16 96.34 16 95.68 16 95 C15.46375 94.773125 14.9275 94.54625 14.375 94.3125 C11.17539839 92.54429911 8.70962777 90.46329797 6 88 C6 87.34 6 86.68 6 86 C5.34 86 4.68 86 4 86 C4 85.34 4 84.68 4 84 C3.34 84 2.68 84 2 84 C2 83.34 2 82.68 2 82 C1.34 82 0.68 82 0 82 C0 54.94 0 27.88 0 0 Z " fill="#F4F5F6" transform="translate(178,172)"/>
<path d="M0 0 C0 6.93 0 13.86 0 21 C4.79986982 22.88840594 4.79986982 22.88840594 9.6027832 24.76904297 C12.64360224 25.97527117 15.26837523 27.17891682 18 29 C18 29.66 18 30.32 18 31 C15.79471728 31.67668949 13.58561391 32.34093498 11.375 33 C10.14523437 33.37125 8.91546875 33.7425 7.6484375 34.125 C4.26153174 34.93727719 1.46145571 35.17041013 -2 35 C-1.98839844 36.08539063 -1.97679687 37.17078125 -1.96484375 38.2890625 C-1.95545862 39.73437327 -1.94635919 41.17968591 -1.9375 42.625 C-1.92912109 43.33785156 -1.92074219 44.05070312 -1.91210938 44.78515625 C-1.89289704 48.97344438 -2.1732673 52.8728462 -3 57 C-7.18705321 55.6043156 -8.38734932 52.60514371 -10.5625 49 C-13.07826393 44.30002546 -13.07826393 44.30002546 -17 41 C-20.26371978 41.89707215 -23.43629755 43.00081541 -26.640625 44.08984375 C-29.93407781 44.98213968 -32.60888015 45.16955599 -36 45 C-34.25009673 39.87855536 -31.24682915 36.4741268 -27.77734375 32.40234375 C-25.48721394 29.48625539 -25.48721394 29.48625539 -25 26 C-26.42465646 23.68785264 -27.84258361 21.63096392 -29.5 19.5 C-34.05813953 13.63953488 -34.05813953 13.63953488 -33.78125 10.59375 C-33.5234375 10.0678125 -33.265625 9.541875 -33 9 C-31.96359375 9.34933594 -30.9271875 9.69867188 -29.859375 10.05859375 C-28.48961023 10.51830932 -27.11981707 10.9779403 -25.75 11.4375 C-25.06808594 11.66759766 -24.38617188 11.89769531 -23.68359375 12.13476562 C-20.47933387 13.20803714 -17.29953381 14.26015608 -14 15 C-13.443125 13.948125 -12.88625 12.89625 -12.3125 11.8125 C-10.32097856 8.31674428 -7.96651187 5.73831865 -5 3 C-4.1646875 2.1028125 -4.1646875 2.1028125 -3.3125 1.1875 C-2 0 -2 0 0 0 Z " fill="#EFF0F3" transform="translate(287,217)"/>
<path d="M0 0 C1.09441406 -0.01224609 2.18882812 -0.02449219 3.31640625 -0.03710938 C11.32326372 -0.05149295 18.58659479 0.38530818 25.75 4.1875 C24.75 10.1875 24.75 10.1875 18.75 23.1875 C6.54 23.1875 -5.67 23.1875 -18.25 23.1875 C-25.25 9.1875 -25.25 9.1875 -25.25 4.1875 C-24.033125 3.713125 -22.81625 3.23875 -21.5625 2.75 C-20.87800781 2.48316406 -20.19351563 2.21632813 -19.48828125 1.94140625 C-13.07055916 -0.22023487 -6.69781422 0.00388956 0 0 Z " fill="#EEF0F2" transform="translate(245.25,118.8125)"/>
<path d="M0 0 C1 6.75 1 6.75 1 9 C1.185625 9.928125 1.37125 10.85625 1.5625 11.8125 C1.98879718 14.91837947 1.79438309 16.9989972 1 20 C4.37817425 20.84454356 6.67465243 21.10844919 10 20 C11 24.875 11 24.875 11 26 C10.24074219 26.06058594 9.48148438 26.12117188 8.69921875 26.18359375 C7.70535156 26.26738281 6.71148437 26.35117188 5.6875 26.4375 C4.70136719 26.51871094 3.71523437 26.59992188 2.69921875 26.68359375 C-0.09375599 26.91812559 -0.09375599 26.91812559 -3 28 C-5.05739394 32.43963956 -5.95604383 37.16408896 -5 42 C-3.56417603 44.64651875 -1.94395111 46.66725866 0 49 C-2.91482778 49.80967438 -4.46113217 50.21845993 -7.3125 49.0625 C-8.1478125 48.5365625 -8.1478125 48.5365625 -9 48 C-9.33 48.66 -9.66 49.32 -10 50 C-13.57692308 53 -13.57692308 53 -16 53 C-15.979375 51.865625 -15.95875 50.73125 -15.9375 49.5625 C-15.58422523 46.18424326 -15.58422523 46.18424326 -17 45 C-17.29198541 41.0142143 -17.31425903 37.02433155 -17.35009766 33.02880859 C-17.37456118 31.03575066 -17.43113064 29.04316982 -17.48828125 27.05078125 C-17.55983742 19.18755304 -17.0515475 13.25258481 -12 7 C-4.9837963 0 -4.9837963 0 0 0 Z " fill="#F2F3F5" transform="translate(219,125)"/>
<path d="M0 0 C4.07358834 2.07382679 6.33903129 3.75443979 8 8 C8.32592984 12.67166102 7.59286595 16.13764953 4.9375 20 C1.2524911 22.50894223 -1.58027448 23.15271409 -6 23 C-9.35069255 22.23847897 -10.78102793 21.20121758 -13.3125 18.875 C-15.47365663 15.19302945 -15.67768286 12.12257071 -15 8 C-11.99743881 0.27912837 -7.78073039 -1.08877115 0 0 Z " fill="#25395E" transform="translate(228,151)"/>
<path d="M0 0 C3.29401036 2.04228642 4.55163264 3.43071425 5.6171875 7.16015625 C6.2363134 10.9444054 6.29527194 13.32087454 4.75 16.875 C4.1725 17.57625 3.595 18.2775 3 19 C2.57847656 19.5259375 2.15695312 20.051875 1.72265625 20.59375 C-1.30003965 23.06125686 -4.50001243 22.64870653 -8.2578125 22.5390625 C-12.13807572 21.77627571 -13.81129052 20.26705511 -16.02734375 17.0625 C-17.69425811 13.52783822 -18.06988032 10.77778431 -17 7 C-13.47735462 -0.46970586 -7.73370777 -1.63620301 0 0 Z " fill="#353E59" transform="translate(272,151)"/>
<path d="M0 0 C0.99 0.33 1.98 0.66 3 1 C3 18.82 3 36.64 3 55 C-2 55 -2 55 -3.75 53.75 C-6.65890595 49.67753167 -6.37761664 44.40081216 -6.6875 39.5625 C-6.77741211 38.43618164 -6.77741211 38.43618164 -6.86914062 37.28710938 C-7.24645631 31.41028834 -6.31095043 27.96642564 -3 23 C-2.66638022 20.71258249 -2.66638022 20.71258249 -2.65625 18.18359375 C-2.62660156 17.25482422 -2.59695312 16.32605469 -2.56640625 15.36914062 C-2.52204698 13.41080929 -2.4777765 11.45247595 -2.43359375 9.49414062 C-2.40394531 8.56666016 -2.37429687 7.63917969 -2.34375 6.68359375 C-2.32505859 5.83337646 -2.30636719 4.98315918 -2.28710938 4.10717773 C-2 2 -2 2 0 0 Z " fill="#C4CCD7" transform="translate(197,123)"/>
<path d="M0 0 C0.01458252 0.68102783 0.02916504 1.36205566 0.04418945 2.0637207 C0.11862696 5.14722215 0.21530083 8.22963567 0.3125 11.3125 C0.33505859 12.38435547 0.35761719 13.45621094 0.38085938 14.56054688 C0.41630859 15.58857422 0.45175781 16.61660156 0.48828125 17.67578125 C0.51446533 18.62364502 0.54064941 19.57150879 0.56762695 20.5480957 C1.07305423 23.41427646 1.87236731 24.11672774 4 26 C5.38047021 30.14141064 5.22394602 34.03701223 5.25 38.375 C5.270625 39.22578125 5.29125 40.0765625 5.3125 40.953125 C5.34282013 45.81950587 5.14888731 49.04096207 2 53 C1.34 53.66 0.68 54.32 0 55 C-1.32 55 -2.64 55 -4 55 C-5.09623522 21.13915989 -5.09623522 21.13915989 -5.125 10 C-5.12951172 9.29117676 -5.13402344 8.58235352 -5.13867188 7.85205078 C-5.12458502 3.24917003 -5.12458502 3.24917003 -4 1 C-1 0 -1 0 0 0 Z " fill="#DEE2E7" transform="translate(295,123)"/>
<path d="M0 0 C1.21876312 9.36077781 1.21876312 9.36077781 -1.67578125 13.25390625 C-4.68816765 15.89180951 -7.1832941 17.7277647 -11 19 C-11 19.66 -11 20.32 -11 21 C-15.47058824 25 -15.47058824 25 -18 25 C-19.37057543 10.75278383 -19.37057543 10.75278383 -16.20703125 6.70703125 C-13.86173202 5.1788547 -11.59014185 4.05383222 -9 3 C-7.88625 2.38125 -6.7725 1.7625 -5.625 1.125 C-3 0 -3 0 0 0 Z " fill="#E1E3E8" transform="translate(271,198)"/>
<path d="M0 0 C4.14298667 0.59834725 7.18194377 2.00664285 10.8125 4.0625 C11.78832031 4.61035156 12.76414062 5.15820312 13.76953125 5.72265625 C14.50558594 6.14417969 15.24164063 6.56570313 16 7 C16 7.66 16 8.32 16 9 C16.5775 9.2475 17.155 9.495 17.75 9.75 C20.32939979 11.18299988 22.06121592 12.78424676 24 15 C24 15.66 24 16.32 24 17 C24.66 17 25.32 17 26 17 C26.66 18.65 27.32 20.3 28 22 C26.35 21.67 24.7 21.34 23 21 C23.33 20.34 23.66 19.68 24 19 C21.32752366 16.65712582 21.32752366 16.65712582 18 16 C16.9609622 20.42682491 16.68407049 24.78934632 16.4375 29.3125 C16.39431641 30.05306641 16.35113281 30.79363281 16.30664062 31.55664062 C16.20129568 33.37091464 16.10021684 35.1854355 16 37 C15.67 37 15.34 37 15 37 C14.97421875 35.94941406 14.9484375 34.89882813 14.921875 33.81640625 C14.4773052 21.29684331 12.28898354 12.98725322 3 4 C2.01 3.34 1.02 2.68 0 2 C0 1.34 0 0.68 0 0 Z " fill="#D2D6DF" transform="translate(290,257)"/>
<path d="M0 0 C0.66 0 1.32 0 2 0 C2.02903892 4.08331839 2.04681189 8.1666102 2.0625 12.25 C2.07087891 13.40886719 2.07925781 14.56773437 2.08789062 15.76171875 C2.09111328 16.87675781 2.09433594 17.99179688 2.09765625 19.140625 C2.10289307 20.16704102 2.10812988 21.19345703 2.11352539 22.25097656 C2.01336951 24.67625656 1.69923078 26.68697361 1 29 C-3.875 28.125 -3.875 28.125 -5 27 C-5.27858031 23.92548645 -5.23182248 20.8356337 -5.25 17.75 C-5.270625 16.89019531 -5.29125 16.03039062 -5.3125 15.14453125 C-5.34288777 10.21411554 -5.12747656 7.03839206 -2 3 C-1.34 2.01 -0.68 1.02 0 0 Z " fill="#F1F4F7" transform="translate(197,148)"/>
<path d="M0 0 C1.65 0 3.3 0 5 0 C4 3 4 3 2 4 C1.67 54.49 1.34 104.98 1 157 C0.67 157 0.34 157 0 157 C-0.81584822 136.45314608 -1.09413955 115.97560238 -0.87890625 95.41015625 C-0.85379321 92.62952198 -0.83060483 89.84887246 -0.80735779 87.06822205 C-0.75217583 80.59516232 -0.69066892 74.12218034 -0.62663645 67.64920276 C-0.55382472 60.2556824 -0.48844946 52.8621014 -0.42356598 45.46850789 C-0.29040056 30.3122598 -0.14832813 15.15610789 0 0 Z " fill="#C0C7D6" transform="translate(227,203)"/>
<path d="M0 0 C2.375 1 2.375 1 4 3 C4.65964122 6.55761554 4.63041883 9.73916234 3 13 C-0.26083766 14.63041883 -3.44238446 14.65964122 -7 14 C-9.6923481 11.81246717 -9.93936827 10.41576045 -10.4375 7 C-10 4 -10 4 -8.375 1.625 C-5.30522452 -0.4753727 -3.65443439 -0.53293835 0 0 Z " fill="#24305C" transform="translate(227,155)"/>
<path d="M0 0 C-2 2 -2 2 -5.625 2.125 C-6.73875 2.08375 -7.8525 2.0425 -9 2 C-9.2165625 2.928125 -9.2165625 2.928125 -9.4375 3.875 C-10 6 -10 6 -11 8 C-11.06996014 9.70702735 -11.08440154 11.41668003 -11.0625 13.125 C-11.041875 14.73375 -11.02125 16.3425 -11 18 C-6.71 18.33 -2.42 18.66 2 19 C1.67 19.66 1.34 20.32 1 21 C-8.31139884 22.0438045 -8.31139884 22.0438045 -12.06640625 19.72265625 C-14.85937124 16.75471032 -16.37208003 14.03007407 -16.6875 9.9375 C-16.05086634 6.29132539 -15.40125764 3.80549513 -12.84375 1.0546875 C-8.95939156 -1.1672972 -4.31303948 -0.40788815 0 0 Z " fill="#2A385C" transform="translate(271,152)"/>
<path d="M0 0 C1.98 0.99 3.96 1.98 6 3 C6 31.71 6 60.42 6 90 C5.34 90 4.68 90 4 90 C4 61.95 4 33.9 4 5 C3.34 4.67 2.68 4.34 2 4 C2 3.34 2 2.68 2 2 C1.34 2 0.68 2 0 2 C0 1.34 0 0.68 0 0 Z " fill="#E6EEF8" transform="translate(190,179)"/>
<path d="M0 0 C3.16259871 -0.40373601 5.14012639 -0.54458662 7.875 1.1875 C9.38332602 3.61758081 9.36023622 5.19015752 9 8 C7 10 7 10 3.5 10.25 C0 10 0 10 -2 8 C-2.38286803 4.26703674 -2.14915785 3.22373677 0 0 Z " fill="#1A3862" transform="translate(263,157)"/>
<path d="M0 0 C0.66 0.33 1.32 0.66 2 1 C3.20670941 5.30967648 3.26747764 9.09726298 2 13.375 C-0.67796416 16.88982796 -2.75505687 17.81698306 -7 19 C-9.9493094 19.07985495 -12.06894918 18.69550359 -15 18 C-15.66 17.01 -16.32 16.02 -17 15 C-15.75283203 15.03480469 -15.75283203 15.03480469 -14.48046875 15.0703125 C-13.39378906 15.08835938 -12.30710938 15.10640625 -11.1875 15.125 C-10.10855469 15.14820313 -9.02960938 15.17140625 -7.91796875 15.1953125 C-4.80597132 15.23023717 -4.80597132 15.23023717 -2 13 C-1.19458793 9.89188713 -1.19458793 9.89188713 -0.8125 6.375 C-0.65394531 5.18648437 -0.49539062 3.99796875 -0.33203125 2.7734375 C-0.22246094 1.85820312 -0.11289063 0.94296875 0 0 Z " fill="#3F4261" transform="translate(233,155)"/>
<path d="M0 0 C0.33 0 0.66 0 1 0 C1.00586624 0.556306 1.01173248 1.112612 1.01777649 1.68577576 C1.08203887 7.51048665 1.1665405 13.33466169 1.26245117 19.15893555 C1.29556998 21.32845973 1.32364193 23.49806738 1.34643555 25.66772461 C1.38022212 28.79837389 1.43254978 31.92826726 1.48828125 35.05859375 C1.49467117 36.01833603 1.5010611 36.97807831 1.50764465 37.96690369 C1.64034969 44.13665806 2.69234406 49.27265053 5 55 C3.35 54.34 1.7 53.68 0 53 C0 35.51 0 18.02 0 0 Z " fill="#F1F5FE" transform="translate(228,308)"/>
<path d="M0 0 C2.9375 2.125 2.9375 2.125 5 5 C5 8.23421175 4.53173428 10.11377619 2.875 12.875 C-0.20515368 14.72309221 -2.50442383 14.49060718 -6 14 C-8.5 11.875 -8.5 11.875 -10 9 C-9.93572343 5.78617168 -9.53112958 3.83862565 -7.8125 1.125 C-5.00893449 -0.61514411 -3.23330397 -0.51732864 0 0 Z M-6 2 C-8.14915785 5.22373677 -8.38286803 6.26703674 -8 10 C-6.05667668 12.37994368 -6.05667668 12.37994368 -2.5 12.25 C1.05667668 12.37994368 1.05667668 12.37994368 3 10 C3.36023622 7.19015752 3.38332602 5.61758081 1.875 3.1875 C-0.85987361 1.45541338 -2.83740129 1.59626399 -6 2 Z " fill="#4B8FBA" transform="translate(269,155)"/>
<path d="M0 0 C1.68178661 2.52267991 2.90106742 4.81091823 4.125 7.5625 C4.47820312 8.34753906 4.83140625 9.13257813 5.1953125 9.94140625 C6 12 6 12 6 14 C7.32 14.33 8.64 14.66 10 15 C6.21812119 16.83691257 4.05431692 17.15837626 0 16 C-0.95585284 12.2827945 -0.90395705 9.71626787 0 6 C0 5.34 0 4.68 0 4 C-0.66 3.67 -1.32 3.34 -2 3 C-1.34 2.01 -0.68 1.02 0 0 Z " fill="#EBEEF1" transform="translate(220,130)"/>
<path d="M0 0 C2.375 1 2.375 1 4 3 C4.65964122 6.55761554 4.63041883 9.73916234 3 13 C-0.26083766 14.63041883 -3.44238446 14.65964122 -7 14 C-9.6923481 11.81246717 -9.93936827 10.41576045 -10.4375 7 C-10 4 -10 4 -8.375 1.625 C-5.30522452 -0.4753727 -3.65443439 -0.53293835 0 0 Z M-8 4 C-8.33302312 7.1304173 -8.47671956 9.17898298 -6.875 11.9375 C-4.9136096 13.27406292 -4.9136096 13.27406292 -1.9375 12.8125 C1.09515868 12.23351637 1.09515868 12.23351637 3 10 C2.64736215 5.49682877 2.64736215 5.49682877 0 2 C-4.50480277 1.4895042 -4.50480277 1.4895042 -8 4 Z " fill="#4C93BD" transform="translate(227,155)"/>
<path d="M0 0 C0.33 7.92 0.66 15.84 1 24 C0.34 24.33 -0.32 24.66 -1 25 C-1 18.07 -1 11.14 -1 4 C-1.66 4 -2.32 4 -3 4 C-3 9.28 -3 14.56 -3 20 C-3.66 20 -4.32 20 -5 20 C-5.02690104 17.20826945 -5.04679053 14.41679652 -5.0625 11.625 C-5.07087891 10.8309375 -5.07925781 10.036875 -5.08789062 9.21875 C-5.11328125 3.2265625 -5.11328125 3.2265625 -4 1 C-1 0 -1 0 0 0 Z " fill="#CCD0DA" transform="translate(295,123)"/>
<path d="M0 0 C1.32 0.33 2.64 0.66 4 1 C4.02685938 3.14576637 4.04633088 5.29162645 4.0625 7.4375 C4.07410156 8.63246094 4.08570313 9.82742187 4.09765625 11.05859375 C4 14 4 14 3 15 C1.39836084 15.09919077 -0.20779918 15.12969898 -1.8125 15.125 C-2.68519531 15.12757813 -3.55789063 15.13015625 -4.45703125 15.1328125 C-6.78654215 15.01114834 -8.76938015 14.65514709 -11 14 C-11.33 12.02 -11.66 10.04 -12 8 C-11.2265625 8.99 -11.2265625 8.99 -10.4375 10 C-8.05688825 12.30727834 -8.05688825 12.30727834 -4.4375 12.5 C-1.0243101 12.30325805 -1.0243101 12.30325805 1 10.375 C2.33265506 7.20994424 1.85542832 5.2791419 1 2 C0.67 1.34 0.34 0.68 0 0 Z " fill="#1E3658" transform="translate(271,156)"/>
<path d="M0 0 C0.99 0.33 1.98 0.66 3 1 C3 7.6 3 14.2 3 21 C2.01 21 1.02 21 0 21 C0 14.07 0 7.14 0 0 Z " fill="#F5FAFD" transform="translate(196,125)"/>
<path d="M0 0 C7.68421053 -0.29554656 7.68421053 -0.29554656 11 2 C12.5121867 5.02437339 12.17263369 7.66241534 12 11 C10.81232145 14.38031589 10.10174775 14.93216817 7 17 C3.8125 17.125 3.8125 17.125 1 17 C0.67 16.34 0.34 15.68 0 15 C1.670625 14.814375 1.670625 14.814375 3.375 14.625 C7.03103677 14.3534187 7.03103677 14.3534187 9 12 C9.35513379 10.09178939 9.35513379 10.09178939 9.3125 8 C9.32925781 7.29875 9.34601563 6.5975 9.36328125 5.875 C9.24339844 5.25625 9.12351563 4.6375 9 4 C5.81237635 1.87491756 3.73487777 1.4979837 0 1 C0 0.67 0 0.34 0 0 Z " fill="#1C4B74" transform="translate(221,154)"/>
<path d="M0 0 C1.65 0 3.3 0 5 0 C4 3 4 3 2 4 C1.67 15.88 1.34 27.76 1 40 C0.67 40 0.34 40 0 40 C0 26.8 0 13.6 0 0 Z " fill="#B7BFD1" transform="translate(227,203)"/>
<path d="M0 0 C3.0625 0.375 3.0625 0.375 5 2.0625 C6.35219442 5.00551139 6.17318406 6.36028613 5.0625 9.375 C2.0625 11.375 2.0625 11.375 -1.125 11 C-2.5171875 10.690625 -2.5171875 10.690625 -3.9375 10.375 C-3.9375 10.045 -3.9375 9.715 -3.9375 9.375 C-1.9575 9.375 0.0225 9.375 2.0625 9.375 C2.0625 7.065 2.0625 4.755 2.0625 2.375 C0.4125 2.705 -1.2375 3.035 -2.9375 3.375 C-3.2675 5.025 -3.5975 6.675 -3.9375 8.375 C-4.2675 8.375 -4.5975 8.375 -4.9375 8.375 C-5.0625 5.5 -5.0625 5.5 -4.9375 2.375 C-2.9375 0.375 -2.9375 0.375 0 0 Z " fill="#134070" transform="translate(223.9375,156.625)"/>
<path d="M0 0 C0.33 0 0.66 0 1 0 C1.02505615 0.79172607 1.0501123 1.58345215 1.07592773 2.39916992 C1.19215729 5.99543363 1.31476176 9.5914528 1.4375 13.1875 C1.47681641 14.43337891 1.51613281 15.67925781 1.55664062 16.96289062 C1.59853516 18.16494141 1.64042969 19.36699219 1.68359375 20.60546875 C1.72025146 21.71043701 1.75690918 22.81540527 1.79467773 23.95385742 C1.92428215 26.96377375 1.92428215 26.96377375 2.58227539 29.7121582 C3 32 3 32 2 35 C2.66 35.33 3.32 35.66 4 36 C3.34 36.66 2.68 37.32 2 38 C-0.07942675 33.75120589 -0.26410547 29.93152797 -0.1953125 25.29296875 C-0.1924826 24.56757401 -0.18965271 23.84217926 -0.18673706 23.09480286 C-0.17559799 20.79219632 -0.15050566 18.48998773 -0.125 16.1875 C-0.11496206 14.62044835 -0.10583763 13.05339057 -0.09765625 11.48632812 C-0.0756793 7.65740022 -0.04119339 3.82876744 0 0 Z " fill="#B4B7C4" transform="translate(201,143)"/>
<path d="M0 0 C5.50366792 -0.32374517 9.43672206 -0.53286034 14 3 C13.67 4.32 13.34 5.64 13 7 C12.67 6.34 12.34 5.68 12 5 C9.11788698 4.03929566 7.30149956 3.89418117 4.3125 3.9375 C3.50425781 3.94652344 2.69601563 3.95554688 1.86328125 3.96484375 C1.24839844 3.97644531 0.63351563 3.98804688 0 4 C0 2.68 0 1.36 0 0 Z " fill="#303459" transform="translate(219,151)"/>
<path d="M0 0 C0.66 0 1.32 0 2 0 C2 6.93 2 13.86 2 21 C1.34 21 0.68 21 0 21 C0 19.68 0 18.36 0 17 C-0.66 16.67 -1.32 16.34 -2 16 C-1.34 16 -0.68 16 0 16 C0 10.72 0 5.44 0 0 Z " fill="#F8FAFD" transform="translate(292,127)"/>
<path d="M0 0 C0.33 0 0.66 0 1 0 C1 9.9 1 19.8 1 30 C-0.65 30 -2.3 30 -4 30 C-3.2733313 28.94679565 -3.2733313 28.94679565 -2.53198242 27.87231445 C-0.81890363 24.66046235 -0.58093181 22.65634073 -0.48828125 19.04296875 C-0.43510742 17.37524414 -0.43510742 17.37524414 -0.38085938 15.67382812 C-0.35830078 14.52333984 -0.33574219 13.37285156 -0.3125 12.1875 C-0.27833984 11.01767578 -0.24417969 9.84785156 -0.20898438 8.64257812 C-0.12667684 5.76181446 -0.05746822 2.88134862 0 0 Z " fill="#6C7481" transform="translate(199,148)"/>
<path d="M0 0 C0 7.26 0 14.52 0 22 C-0.66 22 -1.32 22 -2 22 C-2 16.06 -2 10.12 -2 4 C-3.32 4.33 -4.64 4.66 -6 5 C-3.74193548 0 -3.74193548 0 0 0 Z " fill="#A0B0BC" transform="translate(287,217)"/>
<path d="M0 0 C2.76276177 0.52268466 5.3260876 1.10869587 8 2 C7.5020163 5.73487777 7.12508244 7.81237635 5 11 C3.88435875 8.39683709 3.00809222 6.04450721 2.5 3.25 C2.335 2.5075 2.17 1.765 2 1 C1.34 0.67 0.68 0.34 0 0 Z " fill="#BABEC9" transform="translate(263,121)"/>
<path d="M0 0 C2.475 0.99 2.475 0.99 5 2 C2.45217026 4.97246802 -0.45340883 6.41535288 -4 8 C-4.66 8 -5.32 8 -6 8 C-6 6.35 -6 4.7 -6 3 C-5.34 3.66 -4.68 4.32 -4 5 C-2.68 3.35 -1.36 1.7 0 0 Z " fill="#CBD0D8" transform="translate(296,362)"/>
<path d="M0 0 C0.33 0.66 0.66 1.32 1 2 C0.67 2.99 0.34 3.98 0 5 C2.31 5.33 4.62 5.66 7 6 C2.59360646 8.20319677 0.02549129 9.10924981 -5 9 C-3.7508258 5.54074837 -2.32472205 2.85306797 0 0 Z " fill="#A1ACB9" transform="translate(256,253)"/>
<path d="M0 0 C0 0.99 0 1.98 0 3 C-0.556875 3.061875 -1.11375 3.12375 -1.6875 3.1875 C-4.28097469 3.91135023 -4.28097469 3.91135023 -6.5625 6.5625 C-7.7690625 7.7690625 -7.7690625 7.7690625 -9 9 C-9.99 9 -10.98 9 -12 9 C-10.30509374 3.91528123 -5.30390826 0 0 0 Z " fill="#C0C4D3" transform="translate(219,125)"/>
<path d="M0 0 C4.75481646 0.57634139 7.97048212 2.55068521 12 5 C11.01 5.33 10.02 5.66 9 6 C8.34 6.66 7.68 7.32 7 8 C5.8274869 7.04882866 4.66212985 6.08882991 3.5 5.125 C2.8503125 4.59132813 2.200625 4.05765625 1.53125 3.5078125 C1.0259375 3.01023437 0.520625 2.51265625 0 2 C0 1.34 0 0.68 0 0 Z " fill="#9EA6B4" transform="translate(290,257)"/>
<path d="M0 0 C3.125 -0.1875 3.125 -0.1875 6 0 C5.360625 0.226875 4.72125 0.45375 4.0625 0.6875 C1.72806339 1.85250896 1.72806339 1.85250896 1.25 4.625 C1.1675 5.40875 1.085 6.1925 1 7 C2.98 7.66 4.96 8.32 7 9 C7 9.33 7 9.66 7 10 C3.625 10.125 3.625 10.125 0 10 C-2 8 -2 8 -2.25 5.5625 C-2 3 -2 3 0 0 Z " fill="#15436E" transform="translate(263,157)"/>
<path d="M0 0 C3.63 0 7.26 0 11 0 C11.66 1.65 12.32 3.3 13 5 C9.04 5 5.08 5 1 5 C1 4.34 1 3.68 1 3 C4.465 2.505 4.465 2.505 8 2 C5.36 1.67 2.72 1.34 0 1 C0 0.67 0 0.34 0 0 Z " fill="#324667" transform="translate(261,151)"/>
<path d="M0 0 C1.35439668 2.70879335 1.06501451 5.00933268 1 8 C-0.175625 8.185625 -0.175625 8.185625 -1.375 8.375 C-4.14057822 8.79117993 -4.14057822 8.79117993 -6 11 C-6.99 10.67 -7.98 10.34 -9 10 C-8.27683594 9.29423828 -8.27683594 9.29423828 -7.5390625 8.57421875 C-6.90742188 7.95160156 -6.27578125 7.32898438 -5.625 6.6875 C-4.68527344 5.76517578 -4.68527344 5.76517578 -3.7265625 4.82421875 C-1.81913393 2.91187472 -1.81913393 2.91187472 0 0 Z " fill="#C6C8D4" transform="translate(301,302)"/>
<path d="M0 0 C3.3 0.99 6.6 1.98 10 3 C10 3.33 10 3.66 10 4 C8.02 4.33 6.04 4.66 4 5 C3.67 5.99 3.34 6.98 3 8 C0.37613513 4.93882432 0 4.26826873 0 0 Z " fill="#A9B1C0" transform="translate(253,226)"/>
<path d="M0 0 C-0.50603992 2.16874252 -0.99983813 3.99967627 -2 6 C-3.32 5.67 -4.64 5.34 -6 5 C-6 3.68 -6 2.36 -6 1 C-4 0 -4 0 0 0 Z " fill="#E7EBF0" transform="translate(268,200)"/>
<path d="M0 0 C6.93 0.495 6.93 0.495 14 1 C13.67 1.66 13.34 2.32 13 3 C11.20906809 3.08086147 9.41710372 3.13912702 7.625 3.1875 C6.12839844 3.23970703 6.12839844 3.23970703 4.6015625 3.29296875 C3.74304688 3.19628906 2.88453125 3.09960938 2 3 C1.34 2.01 0.68 1.02 0 0 Z " fill="#353D5C" transform="translate(259,170)"/>
<path d="M0 0 C0.515625 0.66 1.03125 1.32 1.5625 2 C3.93893577 4.32369446 3.93893577 4.32369446 7.5625 4.375 C11.11785744 4.25451357 11.11785744 4.25451357 14 2 C14 3.32 14 4.64 14 6 C9.71 6 5.42 6 1 6 C0.67 4.02 0.34 2.04 0 0 Z " fill="#1A4A74" transform="translate(259,164)"/>
<path d="M0 0 C0 2.31 0 4.62 0 7 C-1.65 6.67 -3.3 6.34 -5 6 C-5 4.35 -5 2.7 -5 1 C-3 0 -3 0 0 0 Z " fill="#F9FAFB" transform="translate(283,261)"/>
<path d="M0 0 C0.33 0 0.66 0 1 0 C0.50769231 7.50769231 0.50769231 7.50769231 -2.0625 10 C-3.0215625 10.495 -3.0215625 10.495 -4 11 C-4 9.02 -4 7.04 -4 5 C-3.34 5 -2.68 5 -2 5 C-1.34 3.35 -0.68 1.7 0 0 Z " fill="#CDD2D9" transform="translate(299,166)"/>
<path d="M0 0 C1.32 0 2.64 0 4 0 C4.33 1.32 4.66 2.64 5 4 C4.01 4.495 4.01 4.495 3 5 C3 4.01 3 3.02 3 2 C2.34 2 1.68 2 1 2 C1 3.65 1 5.3 1 7 C0.01 6.67 -0.98 6.34 -2 6 C-1.125 1.125 -1.125 1.125 0 0 Z " fill="#29305A" transform="translate(265,158)"/>
<path d="M0 0 C2.22574335 0.22451458 4.45581519 0.40782878 6.6875 0.5625 C7.86699219 0.64628906 9.04648437 0.73007812 10.26171875 0.81640625 C11.61716797 0.90728516 11.61716797 0.90728516 13 1 C13 1.33 13 1.66 13 2 C10.45826023 2.02716824 7.91681585 2.04691969 5.375 2.0625 C4.30572266 2.07506836 4.30572266 2.07506836 3.21484375 2.08789062 C-0.97344438 2.10710296 -4.8728462 1.8267327 -9 1 C-9 0.67 -9 0.34 -9 0 C-3.375 -1.125 -3.375 -1.125 0 0 Z " fill="#A2A6B4" transform="translate(263,372)"/>
<path d="M0 0 C2.97 0.495 2.97 0.495 6 1 C6 2.98 6 4.96 6 7 C3 6 3 6 1.3125 2.9375 C0.879375 1.968125 0.44625 0.99875 0 0 Z " fill="#BAC5D2" transform="translate(278,267)"/>
<path d="M0 0 C2.31 0.66 4.62 1.32 7 2 C6.67 2.66 6.34 3.32 6 4 C5.01 4 4.02 4 3 4 C2.67 5.32 2.34 6.64 2 8 C0.4375 6.25 0.4375 6.25 -1 4 C-0.6875 1.75 -0.6875 1.75 0 0 Z " fill="#B9BCC8" transform="translate(299,262)"/>
<path d="M0 0 C1.98 0.99 3.96 1.98 6 3 C6 7.62 6 12.24 6 17 C5.67 17 5.34 17 5 17 C4.95101562 16.14535156 4.90203125 15.29070312 4.8515625 14.41015625 C4.77679688 13.30542969 4.70203125 12.20070312 4.625 11.0625 C4.52058594 9.40927734 4.52058594 9.40927734 4.4140625 7.72265625 C4.27742187 6.82417969 4.14078125 5.92570313 4 5 C3.34 4.67 2.68 4.34 2 4 C2 3.34 2 2.68 2 2 C1.34 2 0.68 2 0 2 C0 1.34 0 0.68 0 0 Z " fill="#C5CEDD" transform="translate(190,179)"/>
<path d="M0 0 C7.68421053 -0.29554656 7.68421053 -0.29554656 11 2 C12.4783226 4.95664519 12.06032783 7.74229737 12 11 C11.67 11 11.34 11 11 11 C10.5978125 9.329375 10.5978125 9.329375 10.1875 7.625 C9.34190981 3.78159049 9.34190981 3.78159049 6 2 C4.0103005 1.60986284 2.00980131 1.26797351 0 1 C0 0.67 0 0.34 0 0 Z " fill="#143C66" transform="translate(221,154)"/>
<path d="M0 0 C4.455 1.98 4.455 1.98 9 4 C9 4.33 9 4.66 9 5 C6.1875 5.625 6.1875 5.625 3 6 C2.01 5.34 1.02 4.68 0 4 C0 2.68 0 1.36 0 0 Z " fill="#B6C1CA" transform="translate(208,191)"/>
<path d="M0 0 C0.99 0.33 1.98 0.66 3 1 C3.33 2.65 3.66 4.3 4 6 C1.5625 5.625 1.5625 5.625 -1 5 C-1.33 4.34 -1.66 3.68 -2 3 C-1.34 2.01 -0.68 1.02 0 0 Z " fill="#DEDFE8" transform="translate(194,171)"/>
<path d="M0 0 C2 1 2 1 2.6328125 2.84765625 C2.79523438 3.57855469 2.95765625 4.30945313 3.125 5.0625 C3.29257813 5.79597656 3.46015625 6.52945312 3.6328125 7.28515625 C3.75398437 7.85105469 3.87515625 8.41695313 4 9 C1.525 8.01 1.525 8.01 -1 7 C-0.67 4.69 -0.34 2.38 0 0 Z " fill="#D3D9E2" transform="translate(229,354)"/>
<path d="M0 0 C0.33 1.32 0.66 2.64 1 4 C-0.625 5.5625 -0.625 5.5625 -3 7 C-6.25 6.6875 -6.25 6.6875 -9 6 C-9 5.67 -9 5.34 -9 5 C-7.02 5 -5.04 5 -3 5 C-3 4.34 -3 3.68 -3 3 C-2.01 3 -1.02 3 0 3 C0 2.01 0 1.02 0 0 Z " fill="#1F5380" transform="translate(229,161)"/>
<path d="M0 0 C0.99 0.495 0.99 0.495 2 1 C2.4140625 3.06640625 2.4140625 3.06640625 2.625 5.5625 C2.69976562 6.38878906 2.77453125 7.21507812 2.8515625 8.06640625 C2.92503906 9.02353516 2.92503906 9.02353516 3 10 C2.01 10.495 2.01 10.495 1 11 C0.67 7.37 0.34 3.74 0 0 Z " fill="#4A4F66" transform="translate(233,155)"/>
<path d="M0 0 C1.99097846 2.98646769 2.94124926 5.59687262 4 9 C2.68 9 1.36 9 0 9 C0 7.35 0 5.7 0 4 C-0.66 3.67 -1.32 3.34 -2 3 C-1.34 2.01 -0.68 1.02 0 0 Z " fill="#BFC2D6" transform="translate(220,130)"/>
<path d="M0 0 C0.33 0 0.66 0 1 0 C1 2.31 1 4.62 1 7 C0.01 7 -0.98 7 -2 7 C-2.66 5.68 -3.32 4.36 -4 3 C-3.34 3 -2.68 3 -2 3 C-1.34 2.01 -0.68 1.02 0 0 Z " fill="#D3DBE5" transform="translate(219,344)"/>
<path d="M0 0 C0 3.63 0 7.26 0 11 C-0.66 10.67 -1.32 10.34 -2 10 C-1.9071875 8.329375 -1.9071875 8.329375 -1.8125 6.625 C-1.874375 5.42875 -1.93625 4.2325 -2 3 C-2.99 2.34 -3.98 1.68 -5 1 C-3 0 -3 0 0 0 Z " fill="#AEB4C3" transform="translate(271,198)"/>
<path d="M0 0 C0.33 0 0.66 0 1 0 C1.33 1.98 1.66 3.96 2 6 C1.34 6 0.68 6 0 6 C0 6.99 0 7.98 0 9 C-0.99 8.67 -1.98 8.34 -3 8 C-2.01 5.36 -1.02 2.72 0 0 Z " fill="#BCC1DD" transform="translate(268,135)"/>
<path d="M0 0 C4.75 0.875 4.75 0.875 7 2 C7 2.99 7 3.98 7 5 C5.35 4.67 3.7 4.34 2 4 C2 3.01 2 2.02 2 1 C1.34 0.67 0.68 0.34 0 0 Z " fill="#BFC2D9" transform="translate(263,121)"/>
<path d="M0 0 C4.875 1.75 4.875 1.75 6 4 C4.02 4.33 2.04 4.66 0 5 C0 3.35 0 1.7 0 0 Z " fill="#949BAD" transform="translate(253,310)"/>
<path d="M0 0 C1.32 0.33 2.64 0.66 4 1 C4 3.97 4 6.94 4 10 C3.34 10 2.68 10 2 10 C2.04125 9.0925 2.0825 8.185 2.125 7.25 C2.00468444 4.1217954 1.6085292 2.61385994 0 0 Z " fill="#193F6B" transform="translate(271,156)"/>
<path d="M0 0 C2.86724686 0.57344937 3.8614515 0.8614515 6 3 C5.01 3.33 4.02 3.66 3 4 C2.67 3.67 2.34 3.34 2 3 C1.67 3.66 1.34 4.32 1 5 C0.34 5 -0.32 5 -1 5 C-0.67 3.35 -0.34 1.7 0 0 Z " fill="#B1BCCB" transform="translate(272,125)"/>
<path d="M0 0 C0.33 0.66 0.66 1.32 1 2 C1.66 2 2.32 2 3 2 C3.66 3.65 4.32 5.3 5 7 C3.35 6.67 1.7 6.34 0 6 C0.33 5.34 0.66 4.68 1 4 C0.34 3.34 -0.32 2.68 -1 2 C-0.67 1.34 -0.34 0.68 0 0 Z " fill="#C3CAD3" transform="translate(313,272)"/>
<path d="M0 0 C2.475 0.99 2.475 0.99 5 2 C5 2.66 5 3.32 5 4 C3.35 4.33 1.7 4.66 0 5 C0 3.35 0 1.7 0 0 Z " fill="#8E93A6" transform="translate(300,244)"/>
<path d="M0 0 C0.66 0.33 1.32 0.66 2 1 C0.25 5.875 0.25 5.875 -2 7 C-2.66 5.68 -3.32 4.36 -4 3 C-2.68 2.01 -1.36 1.02 0 0 Z " fill="#CED1DB" transform="translate(281,222)"/>
<path d="" fill="#000000" transform="translate(0,0)"/>
<path d="" fill="#000000" transform="translate(0,0)"/>
<path d="" fill="#000000" transform="translate(0,0)"/>
<path d="" fill="#000000" transform="translate(0,0)"/>
<path d="" fill="#000000" transform="translate(0,0)"/>
<path d="" fill="#000000" transform="translate(0,0)"/>
<path d="" fill="#000000" transform="translate(0,0)"/>
<path d="" fill="#000000" transform="translate(0,0)"/>
<path d="" fill="#000000" transform="translate(0,0)"/>
<path d="" fill="#000000" transform="translate(0,0)"/>
<path d="" fill="#000000" transform="translate(0,0)"/>
<path d="" fill="#000000" transform="translate(0,0)"/>
<path d="" fill="#000000" transform="translate(0,0)"/>
<path d="" fill="#000000" transform="translate(0,0)"/>
<path d="" fill="#000000" transform="translate(0,0)"/>
<path d="" fill="#000000" transform="translate(0,0)"/>
<path d="" fill="#000000" transform="translate(0,0)"/>
<path d="" fill="#000000" transform="translate(0,0)"/>
<path d="" fill="#000000" transform="translate(0,0)"/>
<path d="" fill="#000000" transform="translate(0,0)"/>
<path d="" fill="#000000" transform="translate(0,0)"/>
<path d="" fill="#000000" transform="translate(0,0)"/>
<path d="" fill="#000000" transform="translate(0,0)"/>
<path d="" fill="#000000" transform="translate(0,0)"/>
<path d="" fill="#000000" transform="translate(0,0)"/>
<path d="" fill="#000000" transform="translate(0,0)"/>
<path d="" fill="#000000" transform="translate(0,0)"/>
<path d="" fill="#000000" transform="translate(0,0)"/>
<path d="" fill="#000000" transform="translate(0,0)"/>
<path d="" fill="#000000" transform="translate(0,0)"/>
<path d="" fill="#000000" transform="translate(0,0)"/>
<path d="" fill="#000000" transform="translate(0,0)"/>
<path d="" fill="#000000" transform="translate(0,0)"/>
<path d="" fill="#000000" transform="translate(0,0)"/>
<path d="" fill="#000000" transform="translate(0,0)"/>
<path d="" fill="#000000" transform="translate(0,0)"/>
<path d="" fill="#000000" transform="translate(0,0)"/>
<path d="" fill="#000000" transform="translate(0,0)"/>
<path d="" fill="#000000" transform="translate(0,0)"/>
<path d="" fill="#000000" transform="translate(0,0)"/>
<path d="" fill="#000000" transform="translate(0,0)"/>
<path d="" fill="#000000" transform="translate(0,0)"/>
<path d="" fill="#000000" transform="translate(0,0)"/>
<path d="" fill="#000000" transform="translate(0,0)"/>
<path d="" fill="#000000" transform="translate(0,0)"/>
<path d="" fill="#000000" transform="translate(0,0)"/>
<path d="" fill="#000000" transform="translate(0,0)"/>
<path d="" fill="#000000" transform="translate(0,0)"/>
<path d="" fill="#000000" transform="translate(0,0)"/>
<path d="" fill="#000000" transform="translate(0,0)"/>
<path d="" fill="#000000" transform="translate(0,0)"/>
<path d="" fill="#000000" transform="translate(0,0)"/>
<path d="" fill="#000000" transform="translate(0,0)"/>
<path d="" fill="#000000" transform="translate(0,0)"/>
<path d="" fill="#000000" transform="translate(0,0)"/>
<path d="" fill="#000000" transform="translate(0,0)"/>
<path d="" fill="#000000" transform="translate(0,0)"/>
<path d="" fill="#000000" transform="translate(0,0)"/>
<path d="" fill="#000000" transform="translate(0,0)"/>
<path d="" fill="#000000" transform="translate(0,0)"/>
<path d="" fill="#000000" transform="translate(0,0)"/>
<path d="" fill="#000000" transform="translate(0,0)"/>
<path d="" fill="#000000" transform="translate(0,0)"/>
<path d="" fill="#000000" transform="translate(0,0)"/>
<path d="" fill="#000000" transform="translate(0,0)"/>
<path d="" fill="#000000" transform="translate(0,0)"/>
<path d="" fill="#000000" transform="translate(0,0)"/>
<path d="" fill="#000000" transform="translate(0,0)"/>
<path d="" fill="#000000" transform="translate(0,0)"/>
<path d="" fill="#000000" transform="translate(0,0)"/>
<path d="" fill="#000000" transform="translate(0,0)"/>
<path d="" fill="#000000" transform="translate(0,0)"/>
<path d="" fill="#000000" transform="translate(0,0)"/>
<path d="" fill="#000000" transform="translate(0,0)"/>
</svg>
